<svg width="24" height="24" viewBox="0 0 24 24" fill="none" xmlns="http://www.w3.org/2000/svg">
<path d="M1.5 20.2698C1.5 21.4995 2.5005 22.5 3.7302 22.5H20.2697C21.4995 22.5 22.5 21.4995 22.5 20.2698V3.7302C22.5 2.5005 21.4995 1.5 20.2698 1.5H3.7302C2.5005 1.5 1.5 2.5005 1.5 3.7302V20.2698ZM20.2698 21H3.7302C3.32737 21 3 20.6726 3 20.2698V19.1109L9.72435 13.7307L16.0019 19.3103C16.311 19.5857 16.7849 19.5587 17.0602 19.2481C17.3356 18.939 17.3078 18.4644 16.998 18.1898L15.2813 16.6638L17.1797 15.2403L21 19.0606V20.2698C21 20.6726 20.6726 21 20.2698 21ZM3.7302 3H20.2697C20.6726 3 21 3.32737 21 3.7302V16.9394L17.7803 13.7197C17.5173 13.4545 17.0984 13.426 16.8003 13.6501L14.1377 15.6471L10.248 12.1897C9.97627 11.9465 9.5676 11.9355 9.28117 12.164L3 17.1891V3.7302C3 3.32737 3.32737 3 3.7302 3Z" fill="#4295E4"/>
<path d="M15.75 10.5C17.4046 10.5 18.75 9.15457 18.75 7.5C18.75 5.84543 17.4046 4.5 15.75 4.5C14.0954 4.5 12.75 5.84543 12.75 7.5C12.75 9.15457 14.0954 10.5 15.75 10.5ZM15.75 6C16.5769 6 17.25 6.67313 17.25 7.5C17.25 8.32687 16.5769 9 15.75 9C14.9231 9 14.25 8.32687 14.25 7.5C14.25 6.67313 14.9231 6 15.75 6Z" fill="#4295E4"/>
</svg>
